<!DOCTYPE svg PUBLIC "-//W3C//DTD SVG 1.1//EN" "http://www.w3.org/Graphics/SVG/1.1/DTD/svg11.dtd">
<!-- Uploaded to: SVG Repo, www.svgrepo.com, Transformed by: SVG Repo Mixer Tools -->
<svg fill="#3891b7" height="800px" width="800px" version="1.1" id="Capa_1" xmlns="http://www.w3.org/2000/svg" xmlns:xlink="http://www.w3.org/1999/xlink" viewBox="0 0 298 298" xml:space="preserve">
<g id="SVGRepo_bgCarrier" stroke-width="0"/>
<g id="SVGRepo_tracerCarrier" stroke-linecap="round" stroke-linejoin="round"/>
<g id="SVGRepo_iconCarrier"> <g> <path d="M290.5,142.5h-22.069l10.116-10.116c2.93-2.929,2.93-7.678,0.001-10.607c-2.93-2.929-7.679-2.93-10.606-0.001 l-19.428,19.427l-42.498-15.113l20.012-42.096l0.494-0.494H251.5c4.143,0,7.5-3.357,7.5-7.5s-3.357-7.5-7.5-7.5h-9.979 l13.545-13.545c2.929-2.93,2.929-7.678,0-10.607c-2.93-2.928-7.844-2.928-10.774,0l-16.125,15.959V45.5c0-4.143-3.357-7.5-7.5-7.5 c-4.143,0-7.5,3.357-7.5,7.5v28.188l-40.399,19.283L157.459,49.2l18.803-18.763c2.929-2.929,2.95-7.678,0.02-10.606 c-2.928-2.928-7.833-2.929-10.762,0.001l-9.352,9.196V7.5c0-4.143-3.357-7.5-7.5-7.5c-4.143,0-7.5,3.357-7.5,7.5v20.528 l-8.03-8.196c-2.93-2.929-7.595-2.93-10.523-0.001c-2.93,2.929-2.888,7.678,0.041,10.606l18.577,18.557l-15.379,43.96 L84.167,73.213V46.5c0-4.143-3.357-7.5-7.5-7.5s-7.5,3.357-7.5,7.5v12.6L54.228,43.994c-2.93-2.928-7.594-2.928-10.524,0 c-2.929,2.93-2.887,7.678,0.042,10.608L58.686,69.5H46.5c-4.143,0-7.5,3.357-7.5,7.5s3.357,7.5,7.5,7.5h26.713l19.771,41.59 l-43.019,15.299L31.06,122.483c-2.93-2.928-7.678-2.928-10.607,0c-2.929,2.93-2.929,7.678,0,10.607l9.409,9.409H7.5 c-4.143,0-7.5,3.357-7.5,7.5s3.357,7.5,7.5,7.5h21.069l-8.116,8.116c-2.929,2.93-2.929,7.678,0,10.607 c1.465,1.464,3.385,2.196,5.304,2.196c1.919,0,3.839-0.732,5.304-2.196l18.69-18.689l43.234,15.375L73.688,213.5H46.5 c-4.143,0-7.5,3.357-7.5,7.5s3.357,7.5,7.5,7.5h13.807l-15.959,15.959c-2.929,2.93-2.929,7.678,0,10.607 c1.465,1.464,3.385,2.196,5.304,2.196c1.919,0,3.672-0.732,5.137-2.196l14.378-14.545V251.5c0,4.143,3.357,7.5,7.5,7.5 s7.5-3.357,7.5-7.5v-25.713l41.758-19.771l15.248,42.651l-18.519,18.561c-2.929,2.929-2.908,7.678,0.022,10.607 c1.464,1.464,3.394,2.196,5.313,2.196s3.678-0.733,5.142-2.197l8.035-8.196V290.5c0,4.143,3.357,7.5,7.5,7.5 c4.143,0,7.5-3.357,7.5-7.5v-21.862l9.363,9.196c1.465,1.465,3.467,2.197,5.387,2.197c1.919,0,3.881-0.733,5.344-2.196 c2.93-2.929,2.951-7.678,0.022-10.607l-18.55-18.561l15.004-42.651l41.431,19.771V251.5c0,4.143,3.357,7.5,7.5,7.5 c4.143,0,7.5-3.357,7.5-7.5v-11.186l14.565,14.398c1.465,1.464,3.468,2.196,5.387,2.196c1.919,0,3.881-0.732,5.345-2.196 c2.929-2.93,2.95-7.678,0.021-10.607L238.9,228.5h13.6c4.143,0,7.5-3.357,7.5-7.5s-3.357-7.5-7.5-7.5h-27.189l-19.296-40.591 l43.332-15.409h0.576l18.018,18.017c1.464,1.464,3.384,2.196,5.303,2.196c1.919,0,3.839-0.732,5.304-2.197 c2.929-2.929,2.929-7.678-0.001-10.606l-7.409-7.409H290.5c4.143,0,7.5-3.357,7.5-7.5S294.643,142.5,290.5,142.5z M204.356,204.356 l-40.015-19.022L149.5,227.076l-14.842-41.742l-19.006,9.035l-21.009,9.987l19.02-40.014L71.924,149.5l41.74-14.844l-19.02-40.013 l40.077,19.051l14.688-42.411l14.907,42.394l40.041-19.033l-19.021,40.013l41.74,14.844l-41.74,14.843L204.356,204.356z"/> </g> </g>
</svg>